<svg width="45" height="55" viewBox="0 0 45 55" fill="none" xmlns="http://www.w3.org/2000/svg">
<path d="M3.28063 17.79C1.46889 17.789 0.000447014 19.3119 0 21.1849L0.00223469 35.3991C0.00194089 35.8451 0.0866282 36.2868 0.251453 36.6989C0.416279 37.111 0.658009 37.4854 0.962821 37.8008C1.26763 38.1162 1.62955 38.3663 2.02787 38.5369C2.42619 38.7075 2.85311 38.7952 3.28421 38.7949C3.71525 38.7954 4.14216 38.7079 4.54046 38.5374C4.93876 38.3669 5.30063 38.1168 5.60534 37.8014C5.91005 37.486 6.15161 37.1115 6.31618 36.6993C6.48076 36.2872 6.56511 35.8455 6.5644 35.3995L6.5644 21.183C6.56345 20.2827 6.21705 19.4196 5.60132 18.7834C4.98558 18.1471 4.15088 17.7898 3.28063 17.79ZM29.7407 5.02512L32.0308 0.698804C32.0891 0.589055 32.103 0.459852 32.0694 0.339523C32.0358 0.219195 31.9575 0.117562 31.8515 0.0569089C31.7454 -0.00247375 31.6209 -0.0160106 31.5051 0.0192531C31.3894 0.0545169 31.2918 0.135718 31.2338 0.24513L28.9205 4.61677C26.9742 3.72052 24.7959 3.21829 22.4911 3.2206C20.1925 3.21829 18.0151 3.71913 16.0769 4.6103L13.7609 0.249755C13.7326 0.195325 13.6942 0.147239 13.6478 0.108284C13.6014 0.0693292 13.5481 0.0402786 13.4908 0.0228152C13.4335 0.00535171 13.3734 -0.000177355 13.314 0.00654819C13.2547 0.0132737 13.1972 0.0321202 13.1449 0.061996C13.0921 0.0911841 13.0455 0.130969 13.0077 0.179024C12.97 0.227079 12.9419 0.282439 12.9251 0.341865C12.9083 0.401291 12.9031 0.463589 12.9098 0.525116C12.9165 0.586642 12.9351 0.646162 12.9643 0.700191L15.2552 5.02374C10.7538 7.42529 7.71233 11.999 7.71501 17.2503L37.2707 17.2466C37.2716 11.9972 34.2355 7.43269 29.7407 5.02512ZM15.7689 11.7109C15.4402 11.7107 15.125 11.5755 14.8927 11.3349C14.6604 11.0943 14.53 10.7681 14.5302 10.4281C14.5304 10.088 14.6611 9.76194 14.8937 9.52162C15.1262 9.2813 15.4415 9.14639 15.7702 9.14657C16.0989 9.14718 16.414 9.28252 16.6465 9.52296C16.879 9.7634 17.01 10.0893 17.0107 10.4294C17.0101 10.7697 16.879 11.0958 16.6461 11.336C16.4133 11.5763 16.0977 11.7112 15.7689 11.7109ZM29.2267 11.7086C29.0639 11.7087 28.9028 11.6757 28.7524 11.6113C28.6021 11.547 28.4655 11.4526 28.3504 11.3336C28.2353 11.2146 28.144 11.0732 28.0818 10.9177C28.0195 10.7622 27.9875 10.5955 27.9875 10.4271C27.9893 10.0874 28.1204 9.76199 28.3524 9.52152C28.5844 9.28104 28.8987 9.14484 29.2271 9.14241C29.5552 9.14521 29.8691 9.28168 30.1006 9.52225C30.3322 9.76282 30.4627 10.0881 30.464 10.4276C30.4642 10.5958 30.4323 10.7624 30.3702 10.9178C30.3081 11.0733 30.217 11.2145 30.102 11.3335C29.9871 11.4525 29.8507 11.5468 29.7004 11.6112C29.5502 11.6756 29.3892 11.7087 29.2267 11.7086ZM7.83571 18.4314L7.84062 40.4607C7.8401 40.9365 7.93029 41.4077 8.10605 41.8474C8.28181 42.287 8.53968 42.6865 8.86489 43.0229C9.19011 43.3593 9.57627 43.626 10.0013 43.8078C10.4263 43.9896 10.8817 44.0828 11.3416 44.0822L13.7256 44.0832L13.7282 51.6046C13.7278 53.4776 15.1994 55 17.0071 55C18.8202 55 20.2891 53.4762 20.2895 51.6023L20.2877 44.0827L24.7172 44.0813L24.719 51.6023C24.719 53.4739 26.191 54.9995 27.9992 54.9958C29.8123 54.9972 31.282 53.4734 31.2816 51.5995L31.2794 44.0804L33.6718 44.0785C34.1317 44.0786 34.5872 43.9849 35.0121 43.8029C35.437 43.6209 35.8232 43.354 36.1484 43.0176C36.4737 42.6812 36.7317 42.2818 36.9078 41.8422C37.0839 41.4026 37.1745 40.9314 37.1746 40.4556L37.1706 18.4263L7.83571 18.4314ZM44.9978 21.1798C44.9978 20.734 44.913 20.2926 44.7481 19.8807C44.5832 19.4688 44.3414 19.0946 44.0367 18.7794C43.732 18.4642 43.3702 18.2143 42.972 18.0438C42.5739 17.8733 42.1471 17.7856 41.7162 17.7858C39.9045 17.7839 38.4365 19.3059 38.4365 21.1812L38.4392 35.3963C38.4389 35.8421 38.5235 36.2836 38.6883 36.6955C38.8531 37.1074 39.0947 37.4817 39.3994 37.7969C39.7041 38.1121 40.0659 38.3621 40.464 38.5326C40.8622 38.703 41.2889 38.7906 41.7198 38.7903C42.1508 38.7904 42.5775 38.7025 42.9757 38.5319C43.3738 38.3612 43.7355 38.111 44.0402 37.7957C44.3448 37.4803 44.5864 37.1059 44.7511 36.6939C44.9158 36.2819 45.0004 35.8403 45 35.3944L44.9978 21.1798Z" fill="#5D983A"/>
</svg>
