<svg width="39" height="48" viewBox="0 0 39 48" fill="none" xmlns="http://www.w3.org/2000/svg">
<path d="M11.0769 35.0746L18.4569 42.4592L38.7623 22.1492H23.9977L11.0769 35.0746Z" fill="#39CEFD"/>
<path d="M23.9977 0H38.7623L7.38461 31.3823L0 23.9977L23.9977 0Z" fill="#39CEFD"/>
<path d="M18.457 42.4593L23.9978 47.9954H38.7624L25.8416 35.0746L18.457 42.4593Z" fill="#03569B"/>
<path d="M29.4092 38.6653L25.8416 35.0746L18.457 42.4593L29.4092 38.6653Z" fill="url(#paint0_linear_74:82)"/>
<path d="M11.0762 35.0721L18.461 27.6873L25.8462 35.0721L18.461 42.4569L11.0762 35.0721Z" fill="#16B9FD"/>
<path d="M38.7623 22.1492L25.8415 35.0746L38.7623 48H23.9977L11.0723 35.0746L23.9977 22.1492H38.7623ZM23.9977 0L0 23.9977L7.38461 31.3823L38.7623 0H23.9977Z" fill="url(#paint1_radial_74:82)"/>
<defs>
<linearGradient id="paint0_linear_74:82" x1="20.6121" y1="43.8844" x2="26.112" y2="38.3845" gradientUnits="userSpaceOnUse">
<stop stop-color="#1A237E" stop-opacity="0.4"/>
<stop offset="1" stop-color="#1A237E" stop-opacity="0"/>
</linearGradient>
<radialGradient id="paint1_radial_74:82" cx="0" cy="0" r="1" gradientUnits="userSpaceOnUse" gradientTransform="translate(1.08897 3.27154) scale(58.7221)">
<stop stop-color="white" stop-opacity="0.1"/>
<stop offset="1" stop-color="white" stop-opacity="0"/>
</radialGradient>
</defs>
</svg>
