<svg width="59" height="48" viewBox="0 0 59 48" fill="none" xmlns="http://www.w3.org/2000/svg">
<path d="M39.2377 13.0934L44.3663 7.96539L44.7081 5.80613C35.3623 -2.69099 20.5061 -1.72751 12.0813 7.81652C9.74114 10.4673 8.00502 13.7721 7.07922 17.1847L8.91606 16.9259L19.1731 15.2347L19.965 14.4249C24.5275 9.41464 32.242 8.74059 37.5101 13.0036L39.2377 13.0934Z" fill="#EA4335"/>
<path d="M51.6722 17.0339C50.4934 12.6933 48.0732 8.7912 44.7081 5.80627L37.5101 13.0035C40.5496 15.4867 42.2811 19.2277 42.2069 23.1515V24.4291C45.7448 24.4291 48.6132 27.2969 48.6132 30.8345C48.6132 34.3722 45.7448 37.1682 42.2069 37.1682H29.3764L28.1167 38.5356V46.2186L29.3764 47.4241H42.2069C51.4095 47.4957 58.9278 40.1665 58.9995 30.9649C59.0428 25.3875 56.2927 20.1587 51.6722 17.0339Z" fill="#4285F4"/>
<path d="M16.5639 47.4242H29.3764V37.1681H16.5639C15.651 37.1679 14.7669 36.9718 13.9368 36.5925L12.1191 37.1501L6.95451 42.2782L6.50464 44.0236C9.40094 46.2102 12.9347 47.4399 16.5639 47.4242Z" fill="#34A853"/>
<path d="M16.5639 14.1551C7.36101 14.2099 -0.0545492 21.7141 0.000302343 30.9157C0.0309547 36.0541 2.43106 40.8911 6.50459 44.0235L13.9367 36.5924C10.7123 35.1358 9.27943 31.3415 10.7362 28.1176C12.1928 24.8937 15.9877 23.4611 19.2117 24.9175C20.6326 25.5592 21.7704 26.6972 22.4122 28.1176L29.8444 20.6865C26.6821 16.5531 21.7685 14.1364 16.5639 14.1551Z" fill="#FBBC05"/>
</svg>
