<svg width="123" height="123" viewBox="0 0 123 123" fill="none" xmlns="http://www.w3.org/2000/svg">
<path d="M74.8357 72.1608L83.4456 57.248C83.9991 56.3237 83.7531 55.1528 82.9536 54.475L73.8517 47.3267C74.0362 45.9709 74.1592 44.5536 74.1592 43.1363C74.1592 41.7189 74.0362 40.3016 73.8517 38.8843L82.9536 31.736C83.7531 31.0581 83.9991 29.8873 83.4456 28.9629L74.8357 14.0501C74.2822 13.1258 73.1752 12.756 72.1912 13.1258L61.4904 17.4394C59.2764 15.7139 56.8779 14.2966 54.2334 13.1874L52.6345 1.78707C52.5313 1.28868 52.262 0.84027 51.8708 0.515513C51.4796 0.190756 50.9899 0.00896411 50.482 0H33.2622C32.2167 0 31.2942 0.801102 31.1097 1.8487L29.5107 13.249C26.9277 14.3582 24.4678 15.7756 22.2538 17.501L11.5529 13.1874C10.5689 12.8176 9.46191 13.1874 8.90842 14.1117L0.298508 29.0246C-0.254986 29.9489 -0.00898725 31.1197 0.790504 31.7976L9.89241 38.9459C9.70791 40.3016 9.58491 41.7189 9.58491 43.1363C9.58491 44.5536 9.70791 45.9709 9.89241 47.3883L0.790504 54.5366C-0.00898725 55.2144 -0.254986 56.3853 0.298508 57.3096L8.90842 72.2225C9.46191 73.1468 10.5689 73.5165 11.5529 73.1468L22.2538 68.8332C24.4678 70.5586 26.8662 71.976 29.5107 73.0852L31.1097 84.4855C31.2942 85.4714 32.2167 86.2726 33.2622 86.2726H50.482C51.5275 86.2726 52.45 85.4714 52.6345 84.4239L54.2334 73.0236C56.8164 71.9143 59.2764 70.497 61.4904 68.7715L72.1912 73.0852C73.1752 73.4549 74.2822 73.0852 74.8357 72.1608ZM41.8721 55.4609C35.1071 55.4609 29.5722 49.9148 29.5722 43.1363C29.5722 36.3577 35.1071 30.8116 41.8721 30.8116C48.637 30.8116 54.1719 36.3577 54.1719 43.1363C54.1719 49.9148 48.637 55.4609 41.8721 55.4609ZM122.498 102.726L116.594 98.1658C116.717 97.3031 116.84 96.3788 116.84 95.4544C116.84 94.5301 116.778 93.6057 116.594 92.743L122.436 88.1829C122.928 87.7515 123.113 87.012 122.744 86.3958L117.209 76.8442C116.901 76.228 116.163 76.0431 115.487 76.228L108.66 79.001C107.246 77.8918 105.708 76.9674 103.986 76.2896L102.941 69.018C102.917 68.6887 102.771 68.3801 102.532 68.1524C102.294 67.9246 101.979 67.7938 101.649 67.7856H90.641C89.9646 67.7856 89.3496 68.2786 89.2881 68.9564L88.2426 76.228C86.5821 76.9674 84.9831 77.8302 83.5686 78.9394L76.7422 76.1663C76.4288 76.0482 76.0838 76.0453 75.7685 76.1582C75.4532 76.271 75.188 76.4923 75.0202 76.7826L69.4853 86.3342C69.1778 86.9504 69.2393 87.6899 69.7928 88.1212L75.6352 92.6814C75.3816 94.4801 75.3816 96.3055 75.6352 98.1042L69.7928 102.664C69.3008 103.096 69.1163 103.835 69.4853 104.451L75.0202 114.003C75.3277 114.619 76.0657 114.804 76.7422 114.619L83.5686 111.846C84.9831 112.955 86.5206 113.88 88.2426 114.558L89.2881 121.829C89.4111 122.507 89.9646 123 90.641 123H101.649C102.326 123 102.941 122.507 103.002 121.829L104.048 114.558C105.708 113.818 107.307 112.955 108.66 111.846L115.548 114.619C116.163 114.866 116.901 114.619 117.27 114.003L122.805 104.451C123.174 103.897 122.99 103.157 122.498 102.726ZM96.1145 103.712C93.9117 103.711 91.7995 102.834 90.2425 101.272C88.6855 99.7109 87.8113 97.5938 87.8121 95.3866C87.8129 93.1794 88.6887 91.063 90.2469 89.5028C91.805 87.9427 93.9179 87.0667 96.1206 87.0675C98.3234 87.0683 100.436 87.9459 101.993 89.5072C103.55 91.0685 104.424 93.1856 104.423 95.3928C104.422 97.6 103.546 99.7164 101.988 101.277C100.43 102.837 98.3172 103.713 96.1145 103.712Z" fill="#434343"/>
</svg>
