<svg xmlns="http://www.w3.org/2000/svg" viewBox="0 0 148.73 40.99"><defs><style>.cls-1{fill:#ef434c;}</style></defs><g id="Layer_2" data-name="Layer 2"><g id="Layer_1-2" data-name="Layer 1"><path class="cls-1" d="M7.25,39A13.82,13.82,0,0,1,1.9,33.26,18.42,18.42,0,0,1,0,24.7V0H6.27V25a10.9,10.9,0,0,0,2.3,7.23A8.12,8.12,0,0,0,15.18,35a8.16,8.16,0,0,0,6.63-2.77A10.84,10.84,0,0,0,24.14,25V0h6.21V24.7a18.7,18.7,0,0,1-1.85,8.51A13.6,13.6,0,0,1,23.24,39a15.45,15.45,0,0,1-8.06,2A15.45,15.45,0,0,1,7.25,39Z"/><path class="cls-1" d="M38.42,0h6.27V40.1H38.42Z"/><path class="cls-1" d="M67.42,0h5.94L56.73,40.1H50.79Z"/><path class="cls-1" d="M85.93,39a13.82,13.82,0,0,1-5.35-5.72,18.42,18.42,0,0,1-1.9-8.56V0H85V25a10.9,10.9,0,0,0,2.3,7.23A8.12,8.12,0,0,0,93.85,35a8.17,8.17,0,0,0,6.64-2.77,10.83,10.83,0,0,0,2.32-7.2V0H109V24.7a18.83,18.83,0,0,1-1.85,8.51A13.6,13.6,0,0,1,101.92,39a16.79,16.79,0,0,1-16,0Z"/><path class="cls-1" d="M127,19.26,114.57,0h7.68L131,14.28h.33L140.22,0h7.62L135.46,19.26,148.73,40.1h-7.61l-9.75-15.52H131L121.29,40.1h-7.61Z"/></g></g></svg>